<svg width="140" height="200" fill="none" xmlns="http://www.w3.org/2000/svg">
  <g clip-path="url(#error--blue--clip0)">
    <path opacity="0.47" d="M61.1219 124.926l61.5951 35.301-.055-118.2955L61.1123 3.19086.329134 41.9315.0458984 160.227 61.1219 124.926z" fill="url(#error--blue--paint0_linear)"></path>
    <path opacity="0.34" d="M.0556641 160.224L61.1674 124.862l61.5496 35.362-61.1115 35.362L.0556641 160.224z" fill="url(#error--blue--paint1_linear)"></path>
    <path opacity="0.4" d="M122.716 160.224v4.414L61.5498 200l.0548-4.413 61.1114-35.363z" fill="url(#error--blue--paint2_linear)"></path>
    <path opacity="0.4" d="M61.6046 195.587L61.5498 200 0 164.638l.0547596-4.414L61.6046 195.587z" fill="url(#error--blue--paint3_linear)"></path>
    <path d="M61.8023 109.181c-4.7894-2.78-9.1797-3.029-12.3228-1.192l-4.2905 2.482c3.143-1.837 7.4834-1.588 12.3228 1.192 9.5788 5.51 17.3117 18.814 17.2618 29.735 0 5.411-1.9457 9.234-5.0388 11.07l4.2905-2.482c3.0932-1.787 5.0389-5.609 5.0389-11.07.0499-10.921-7.6831-24.275-17.2619-29.735z" fill="url(#error--blue--paint4_linear)"></path>
    <path d="M57.5116 111.663c9.5788 5.51 17.3117 18.814 17.2619 29.735-.0499 10.921-7.7829 15.34-17.3617 9.879-9.5789-5.51-17.3118-18.814-17.2619-29.736.0499-10.97 7.7828-15.389 17.3617-9.878z" fill="url(#error--blue--paint5_linear)"></path>
    <path d="M56.5628 143.246c-.7836-.468-1.3581-.988-1.7238-1.611-.3656-.624-.5223-1.248-.5223-1.923v-.624c0-.676.1567-1.092.5223-1.3.3657-.207.9402-.103 1.7238.364.7835.468 1.3581.988 1.6715 1.612.3134.623.5224 1.247.5224 1.923v.623c0 .676-.1568 1.092-.5224 1.3-.3134.156-.888.052-1.6715-.364zm-.7313-9.616l-1.1492-9.927v-6.289l3.7609 2.183v6.289l-1.0969 8.628-1.5148-.884z" fill="#fff"></path>
  </g>
  <defs>
    <linearGradient id="error--blue--paint0_linear" x1="61.368" y1="46.6974" x2="61.368" y2="203.538" gradientUnits="userSpaceOnUse">
      <stop stop-color="#F6F2FF" stop-opacity="0"></stop>
      <stop offset="0.0955362" stop-color="#E9E8FF" stop-opacity="0.0479574"></stop>
      <stop offset="0.5112" stop-color="#B5C1FF" stop-opacity="0.2566"></stop>
      <stop offset="0.8241" stop-color="#94A9FF" stop-opacity="0.4137"></stop>
      <stop offset="0.9961" stop-color="#88A0FF" stop-opacity="0.5"></stop>
    </linearGradient>
    <linearGradient id="error--blue--paint1_linear" x1="122.735" y1="160.207" x2="0.0425371" y2="160.207" gradientUnits="userSpaceOnUse">
      <stop stop-color="#D4DAFF"></stop>
      <stop offset="0.9986" stop-color="#97B4FE"></stop>
    </linearGradient>
    <linearGradient id="error--blue--paint2_linear" x1="61.5452" y1="180.108" x2="122.734" y2="180.108" gradientUnits="userSpaceOnUse">
      <stop stop-color="#97C1FF"></stop>
      <stop offset="0.9987" stop-color="#BCC4FF"></stop>
    </linearGradient>
    <linearGradient id="error--blue--paint3_linear" x1="0" y1="180.109" x2="61.5868" y2="180.109" gradientUnits="userSpaceOnUse">
      <stop stop-color="#6D96FF"></stop>
      <stop offset="1" stop-color="#97C1FF"></stop>
    </linearGradient>
    <linearGradient id="error--blue--paint4_linear" x1="62.1334" y1="131.512" x2="62.1267" y2="106.811" gradientUnits="userSpaceOnUse">
      <stop stop-color="#A9BCFE"></stop>
      <stop offset="0.9987" stop-color="#F1F2FC"></stop>
    </linearGradient>
    <linearGradient id="error--blue--paint5_linear" x1="70.2589" y1="163.564" x2="70.3934" y2="109.292" gradientUnits="userSpaceOnUse">
      <stop stop-color="#B2C8FF"></stop>
      <stop offset="0.9986" stop-color="#E3E5FD"></stop>
    </linearGradient>
    <clipPath id="error--blue--clip0">
      <path fill="#fff" d="M0 0h140v200H0z"></path>
    </clipPath>
  </defs>
</svg>