<svg xmlns="http://www.w3.org/2000/svg" viewBox="0 0 140 200">
  <defs>
    <linearGradient id="support--dark-gray-1" x1="66.98" x2="66.98" y1="206.78" y2="29.82" gradientUnits="userSpaceOnUse">
      <stop offset="0" stop-color="#6f6f6f"/>
      <stop offset="1" stop-color="#161616" stop-opacity="0"/>
    </linearGradient>
    <linearGradient id="support--dark-gray-2" x1="50.11" x2="83.93" y1="455.37" y2="396.78" gradientTransform="matrix(1 0 0 -1 0 567.15)" gradientUnits="userSpaceOnUse">
      <stop offset="0" stop-color="#525252"/>
      <stop offset="1" stop-color="#393939"/>
    </linearGradient>
    <linearGradient id="support--dark-gray-3" x1="67.19" x2="134" y1="404.16" y2="404.16" gradientTransform="matrix(1 0 0 -1 0 567.15)" gradientUnits="userSpaceOnUse">
      <stop offset="0" stop-color="#161616"/>
      <stop offset="1" stop-color="#262626"/>
    </linearGradient>
    <linearGradient id="support--dark-gray-4" x2="67.24" y1="404.16" y2="404.16" gradientTransform="matrix(1 0 0 -1 0 567.15)" gradientUnits="userSpaceOnUse">
      <stop offset="0" stop-color="#393939"/>
      <stop offset="1" stop-color="#262626"/>
    </linearGradient>
  </defs>
  <g>
    <path fill="url(#support--dark-gray-1)" d="M66.76 102.24L134 141.17V0H0v141.17z" opacity=".4" style="isolation:isolate"/>
    <path fill="url(#support--dark-gray-2)" d="M0 141.07l66.77-38.93L134 141.07 67.24 180z"/>
    <path fill="url(#support--dark-gray-3)" d="M134 141.07v4.9L67.19 184.9V180z"/>
    <path fill="url(#support--dark-gray-4)" d="M67.24 180v4.9L0 146v-4.9z"/>
    <path fill="#161616" fill-opacity=".3" d="M67.19 184.9l-54.2-31.4L0 161.07 67.19 200l66.77-38.93-12.99-7.52-53.78 31.35z"/>
  </g>
  <g opacity=".8">
    <path fill="#262626" d="M32.4 135.18l-1-.63-.05-25 1.05.64z"/>
    <path fill="#161616" d="M63.89 91.64l.09 25-31.58 18.54v-25z"/>
    <path fill="#393939" d="M32.35 110.18l-1.05-.64 31.54-18.49 1 .59z"/>
  </g>
  <path fill="#8d8d8d" d="M48.83 122.16l-1-.64L79.31 103l1 .59z"/>
  <path fill="#525252" d="M48.92 147.16l-1.05-.63-.09-25 1 .64z"/>
  <path fill="#6f6f6f" d="M80.36 103.62l.09 25-31.53 18.54-.09-25z"/>
  <path fill="#525252" d="M53.94 149.94l-1-.64-.09-25 1.05.64z"/>
  <path fill="#8d8d8d" d="M53.85 124.94l-1.05-.64 31.53-18.49 1.09.59z"/>
  <path fill="#6f6f6f" d="M85.42 106.4v25l-31.48 18.54-.09-25z" opacity=".8" style="isolation:isolate"/>
  <path fill="#525252" d="M59 152.81l-1-.64-.09-25 1 .64z"/>
  <path fill="#8d8d8d" d="M58.91 127.81l-1-.64 31.53-18.49 1.1.59z"/>
  <path fill="#6f6f6f" d="M90.49 109.27v25L59 152.81l-.09-25z" opacity=".8" style="isolation:isolate"/>
  <path fill="#8d8d8d" d="M64 130.58l-1.1-.63 31.58-18.49 1.05.59z"/>
  <path fill="#525252" d="M64 155.59l-1-.59-.09-25 1.1.63z"/>
  <path fill="#6f6f6f" d="M95.51 112.05v25L64 155.59v-25z" opacity=".8" style="isolation:isolate"/>
</svg>