<svg width="140" height="200" fill="none" xmlns="http://www.w3.org/2000/svg">
  <path fill="#fff" d="M0 0h140v178H0z"></path>
  <g opacity=".47">
    <path d="M69.817 92.008l70 40.309L139.589.5H.045v131.953l69.772-40.445z" fill="url(#support--blue--paint0_linear)"></path>
    <path d="M69.817 92.008l70 40.309L139.589.5H.045v131.953l69.772-40.445z" fill="url(#support--blue--paint1_linear)"></path>
  </g>
  <path opacity=".4" d="M.045 132.453l69.772-40.445 70.182 40.445-69.726 40.491L.045 132.453z" fill="url(#support--blue--paint2_linear)"></path>
  <path opacity=".4" d="M140 132.453l-.046 5.102L70.228 178l.046-5.056L140 132.453z" fill="url(#support--blue--paint3_linear)"></path>
  <path opacity=".4" d="M70.274 172.944L70.228 178 0 137.555l.046-5.102 70.228 40.491z" fill="url(#support--blue--paint4_linear)"></path>
  <path d="M33.265 122.433l-1.049-.638-.045-25.005 1.048.638.046 25.005z" fill="url(#support--blue--paint5_linear)"></path>
  <path d="M64.751 78.89l.092 25.051-31.578 18.492-.046-25.005 31.532-18.537z" fill="url(#support--blue--paint6_linear)"></path>
  <path opacity=".6" d="M33.22 97.428l-1.05-.638 31.533-18.492 1.05.593L33.22 97.428z" fill="url(#support--blue--paint7_linear)"></path>
  <g filter="url(#support--blue--filter0_f)">
    <path fill="#4747C6" fill-opacity="0.15" d="M44.056 132.022l33.7-19.456L97.89 124.19l-33.7 19.456z"></path>
  </g>
  <path d="M49.694 109.407l-1.05-.638 31.532-18.492 1.05.592-31.532 18.538z" fill="#F2F4F8"></path>
  <path d="M49.784 134.412l-1.049-.638-.091-25.005 1.049.638.091 25.005z" fill="url(#support--blue--paint8_linear)"></path>
  <path d="M81.225 90.87l.091 25.05-31.532 18.492-.091-25.005 31.532-18.538z" fill="#fff"></path>
  <path d="M54.803 137.19l-1.048-.637-.092-25.006 1.05.638.09 25.005z" fill="url(#support--blue--paint9_linear)"></path>
  <path d="M54.713 112.185l-1.05-.638 31.532-18.492 1.096.593-31.578 18.537z" fill="#F2F4F8"></path>
  <path opacity=".8" d="M86.29 93.648l.046 25.05-31.532 18.492-.092-25.005L86.29 93.648z" fill="#fff"></path>
  <path d="M59.869 140.06l-1.049-.638-.091-25.005 1.049.638.09 25.005z" fill="url(#support--blue--paint10_linear)"></path>
  <path d="M59.778 115.054l-1.05-.637 31.533-18.492 1.095.592-31.578 18.537z" fill="#F2F4F8"></path>
  <path opacity=".8" d="M91.355 96.517l.046 25.051-31.532 18.492-.091-25.005 31.577-18.538z" fill="#fff"></path>
  <path d="M64.844 117.833l-1.096-.638 31.578-18.492 1.05.593-31.532 18.537z" fill="#F2F4F8"></path>
  <path d="M64.888 142.838l-1.049-.638-.09-25.005 1.094.638.045 25.005z" fill="url(#support--blue--paint11_linear)"></path>
  <path opacity=".8" d="M96.375 99.295l.045 25.051-31.532 18.492-.045-25.005 31.532-18.538z" fill="#fff"></path>
  <defs>
    <linearGradient id="support--blue--paint0_linear" x1="69.954" y1="21.574" x2="69.954" y2="175.037" gradientUnits="userSpaceOnUse">
      <stop stop-color="#F6F2FF" stop-opacity="0"></stop>
      <stop offset=".996" stop-color="#88A0FF" stop-opacity=".5"></stop>
    </linearGradient>
    <linearGradient id="support--blue--paint1_linear" x1="69.931" y1=".5" x2="69.931" y2="132.453" gradientUnits="userSpaceOnUse">
      <stop stop-color="#fff"></stop>
      <stop offset="1" stop-color="#fff" stop-opacity="0"></stop>
    </linearGradient>
    <linearGradient id="support--blue--paint2_linear" x1="129.5" y1="150.5" x2="28.109" y2="83.335" gradientUnits="userSpaceOnUse">
      <stop offset=".001" stop-color="#D5D5FF"></stop>
      <stop offset=".001" stop-color="#D6D7FF"></stop>
      <stop offset=".999" stop-color="#91BCFF"></stop>
      <stop offset="1" stop-color="#97AEFF"></stop>
    </linearGradient>
    <linearGradient id="support--blue--paint3_linear" x1="70.207" y1="155.241" x2="140.008" y2="155.241" gradientUnits="userSpaceOnUse">
      <stop stop-color="#97C1FF"></stop>
      <stop offset="1" stop-color="#DDDAFF"></stop>
    </linearGradient>
    <linearGradient id="support--blue--paint4_linear" x1="0" y1="155.242" x2="70.254" y2="155.242" gradientUnits="userSpaceOnUse">
      <stop stop-color="#6D96FF"></stop>
      <stop offset="1" stop-color="#97C1FF"></stop>
    </linearGradient>
    <linearGradient id="support--blue--paint5_linear" x1="31.397" y1="67.737" x2="31.328" y2="87.022" gradientUnits="userSpaceOnUse">
      <stop stop-color="#7C7AF8"></stop>
      <stop offset=".999" stop-color="#C2B8FF"></stop>
    </linearGradient>
    <linearGradient id="support--blue--paint6_linear" x1="37.202" y1="131.533" x2="56.49" y2="75.568" gradientUnits="userSpaceOnUse">
      <stop stop-color="#ABC0FF"></stop>
      <stop offset=".999" stop-color="#D8D0FF"></stop>
    </linearGradient>
    <linearGradient id="support--blue--paint7_linear" x1="22.206" y1="65.742" x2="50.965" y2="90.047" gradientUnits="userSpaceOnUse">
      <stop stop-color="#D4BBFF"></stop>
      <stop offset="1" stop-color="#908EFF" stop-opacity=".4"></stop>
    </linearGradient>
    <linearGradient id="support--blue--paint8_linear" x1="49.207" y1="134.415" x2="49.207" y2="108.765" gradientUnits="userSpaceOnUse">
      <stop stop-color="#E6E6F0"></stop>
      <stop offset="1" stop-color="#F2F4F8"></stop>
    </linearGradient>
    <linearGradient id="support--blue--paint9_linear" x1="54.239" y1="137.201" x2="54.239" y2="111.55" gradientUnits="userSpaceOnUse">
      <stop stop-color="#E6E6F0"></stop>
      <stop offset="1" stop-color="#F2F4F8"></stop>
    </linearGradient>
    <linearGradient id="support--blue--paint10_linear" x1="59.303" y1="140.06" x2="59.303" y2="114.41" gradientUnits="userSpaceOnUse">
      <stop stop-color="#E6E6F0"></stop>
      <stop offset="1" stop-color="#F2F4F8"></stop>
    </linearGradient>
    <linearGradient id="support--blue--paint11_linear" x1="64.335" y1="142.846" x2="64.335" y2="117.195" gradientUnits="userSpaceOnUse">
      <stop stop-color="#E6E6F0"></stop>
      <stop offset="1" stop-color="#F2F4F8"></stop>
    </linearGradient>
    <filter id="support--blue--filter0_f" x="40.056" y="108.565" width="61.836" height="39.082" filterUnits="userSpaceOnUse" color-interpolation-filters="sRGB">
      <feFlood flood-opacity="0" result="BackgroundImageFix"></feFlood>
      <feBlend in="SourceGraphic" in2="BackgroundImageFix" result="shape"></feBlend>
      <feGaussianBlur stdDeviation="2" result="effect1_foregroundBlur"></feGaussianBlur>
    </filter>
  </defs>
</svg>
