<svg xmlns="http://www.w3.org/2000/svg" xmlns:xlink="http://www.w3.org/1999/xlink" viewBox="0 0 140 200">
  <defs>
    <linearGradient id="error--dark-blue-2" x1="66.98" x2="66.98" y1="-4.33" y2="190.03" gradientUnits="userSpaceOnUse">
      <stop offset="0" stop-color="#f6f2ff" stop-opacity="0"/>
      <stop offset=".47" stop-color="#bdccfe" stop-opacity=".47"/>
      <stop offset=".81" stop-color="#99b4fe" stop-opacity=".81"/>
      <stop offset="1" stop-color="#8babfe"/>
      <stop offset="1" stop-color="#8cacfe"/>
    </linearGradient>
    <linearGradient id="error--dark-blue-3" x1="116.59" x2="35.2" y1="1816.57" y2="1865.25" gradientTransform="matrix(1 0 0 -1 0 1977.29)" gradientUnits="userSpaceOnUse">
      <stop offset=".01" stop-color="#545a74"/>
      <stop offset="1" stop-color="#3a3b46"/>
    </linearGradient>
    <linearGradient id="error--dark-blue-4" x1="67.19" x2="134" y1="1824.3" y2="1824.3" gradientTransform="matrix(1 0 0 -1 0 1977.29)" gradientUnits="userSpaceOnUse">
      <stop offset="0" stop-color="#313437"/>
      <stop offset="1" stop-color="#434251"/>
    </linearGradient>
    <linearGradient id="error--dark-blue-5" x2="67.24" y1="1824.3" y2="1824.3" gradientTransform="matrix(1 0 0 -1 0 1977.29)" gradientUnits="userSpaceOnUse">
      <stop offset="0" stop-color="#28292d"/>
      <stop offset="1" stop-color="#3c3d40"/>
    </linearGradient>
    <linearGradient id="error--dark-blue-1" x1="48.34" x2="79.9" y1="119.98" y2="88.42" gradientUnits="userSpaceOnUse">
      <stop offset="0" stop-color="#324280"/>
      <stop offset="1" stop-color="#908dd0"/>
    </linearGradient>
    <linearGradient id="error--dark-blue-6" x1="68.13" x2="68.13" y1="134.08" y2="87.9" xlink:href="#error--dark-blue-1"/>
    <linearGradient id="error--dark-blue-7" x1="48.07" x2="75.27" y1="119.15" y2="91.95" xlink:href="#error--dark-blue-1"/>
    <linearGradient id="error--dark-blue-8" x1="61.43" x2="61.43" y1="1889.44" y2="1857.95" gradientTransform="matrix(1 0 0 -1 0 1977.29)" gradientUnits="userSpaceOnUse">
      <stop offset="0" stop-color="#ccd5f5"/>
      <stop offset="1" stop-color="#a0b0e7"/>
    </linearGradient>
  </defs>
  <g>
    <path fill="url(#error--dark-blue-2)" d="M66.76 92.24L134 131.17V-10H0v141.17z" opacity=".1" style="isolation:isolate"/>
    <path fill="url(#error--dark-blue-3)" d="M0 131.07l66.81-38.93L134 131.07 67.24 170z"/>
    <path fill="url(#error--dark-blue-4)" d="M134 131.07v4.9L67.19 174.9V170z" opacity=".7" style="isolation:isolate"/>
    <path fill="url(#error--dark-blue-5)" d="M67.24 170v4.9L0 136v-4.9z"/>
    <path fill="#161616" fill-opacity=".3" d="M67.19 174.9l-54.2-31.4L0 151.07 67.19 190l66.77-38.93-12.99-7.52-53.78 31.35z"/>
  </g>
  <path fill="url(#error--dark-blue-1)" d="M67.74 78c-5.74-3.36-11-3.65-14.74-1.45l-5.15 3c3.77-2.21 9-1.91 14.78 1.42 11.48 6.61 20.76 22.56 20.7 35.66 0 6.49-2.34 11.07-6 13.27l5.15-3c3.71-2.15 6-6.73 6-13.28.02-13.08-9.25-29.09-20.74-35.62z"/>
  <path fill="url(#error--dark-blue-1)" d="M62.6 81c11.48 6.61 20.76 22.56 20.7 35.66S74 135 62.48 128.45 41.72 105.9 41.78 92.8 51.11 74.35 62.6 81z"/>
  <path fill="url(#error--dark-blue-1)" d="M61.46 118.82a5.63 5.63 0 01-2.07-1.93 4.47 4.47 0 01-.62-2.3v-.75c0-.81.19-1.31.62-1.56s1.13-.12 2.07.44a4.91 4.91 0 012 1.93 5 5 0 01.63 2.31v.74c0 .81-.19 1.31-.63 1.56s-1.06.06-2-.44zm-.88-11.52l-1.37-11.91v-7.54l4.51 2.62V98l-1.32 10.35z"/>
  <path fill="url(#error--dark-blue-6)" d="M67.74 78c-5.74-3.36-11-3.65-14.74-1.45l-5.15 3c3.77-2.21 9-1.91 14.78 1.42 11.48 6.61 20.76 22.56 20.7 35.66 0 6.49-2.34 11.07-6 13.27l5.15-3c3.71-2.15 6-6.73 6-13.28.02-13.08-9.25-29.09-20.74-35.62z"/>
  <path fill="url(#error--dark-blue-7)" d="M62.6 81c11.48 6.61 20.76 22.56 20.7 35.66S74 135 62.48 128.45 41.72 105.9 41.78 92.8 51.11 74.35 62.6 81z"/>
  <path fill="url(#error--dark-blue-8)" d="M61.46 118.82a5.63 5.63 0 01-2.07-1.93 4.47 4.47 0 01-.62-2.3v-.75c0-.81.19-1.31.62-1.56s1.13-.12 2.07.44a4.91 4.91 0 012 1.93 5 5 0 01.63 2.31v.74c0 .81-.19 1.31-.63 1.56s-1.06.06-2-.44zm-.88-11.52l-1.37-11.91v-7.54l4.51 2.62V98l-1.32 10.35z"/>
</svg>