<svg xmlns="http://www.w3.org/2000/svg" viewBox="0 0 72 72"><g><circle cx="36" cy="36" r="36" fill="#e9e9e9"/><path d="M58.5 50.6H12.4c-1.2 0-2.2-1-2.2-2.2V15.8c0-1.2 1-2.2 2.2-2.2h46.1c1.2 0 2.2 1 2.2 2.2v32.6c.1 1.2-1 2.2-2.2 2.2z" fill="#d7d7d7"/><path fill="#fff" d="M58.5 49.5h-45c-1.2 0-2.2-1-2.2-2.2V15.8c0-1.2 1-2.2 2.2-2.2h45c1.2 0 2.2 1 2.2 2.2v31.5c.1 1.2-1 2.2-2.2 2.2z"/><path d="M58.5 15c.4 0 .8.3.8.8v31.5c0 .4-.3.8-.8.8h-45c-.4 0-.8-.3-.8-.8V15.8c0-.4.3-.8.8-.8h45m0-1.5h-45c-1.2 0-2.2 1-2.2 2.2v31.5c0 1.2 1 2.2 2.2 2.2h45c1.2 0 2.2-1 2.2-2.2V15.8c.1-1.3-1-2.3-2.2-2.3z" fill="#6d7182"/><path d="M25.2 28.1H19c-.6 0-1-.4-1-1v-5.9c0-.6.4-1 1-1h6.2c.6 0 1 .4 1 1v5.9c0 .6-.5 1-1 1z" fill="#d7d7d7"/><path fill="#fff" stroke="#6d7182" stroke-linecap="round" stroke-linejoin="round" stroke-miterlimit="10" stroke-width="1.5" d="M31.4 39.4H18m27.1-4.5H18m22.8 4.5h-5.9"/><path d="M24.7 21.8v4.9h-5.2v-4.9h5.2m.5-1.5H19c-.6 0-1 .4-1 1v5.9c0 .6.4 1 1 1h6.2c.6 0 1-.4 1-1v-5.9c0-.6-.5-1-1-1zm39.1 38.5H1c-.4 0-.8-.3-.8-.8s.3-.8.8-.8h63.3c.4 0 .8.3.8.8s-.4.8-.8.8zm6.7 0h-3.1c-.4 0-.8-.3-.8-.8s.3-.8.8-.8H71c.4 0 .8.3.8.8s-.4.8-.8.8z" fill="#6d7182"/></g></svg>