<svg width="140" height="200" fill="none" xmlns="http://www.w3.org/2000/svg">
  <path fill="#fff" d="M0 0h140v178H0z"></path>
  <path d="M140 0H0v178h140V0z" fill="#fff"></path>
  <g opacity=".47">
    <path opacity=".47" d="M69.8 92l70 40.3L139.6.5H0v132L69.8 92z" fill="url(#support--gray--paint0_linear)"></path>
    <path opacity=".47" d="M69.8 92l70 40.3L139.6.5H0v132L69.8 92z" fill="url(#support--gray--paint1_linear)"></path>
  </g>
  <path opacity=".4" d="M0 132.5L69.8 92l70.2 40.4-69.7 40.5L0 132.5z" fill="url(#support--gray--paint2_linear)"></path>
  <path opacity=".4" d="M140 132.5v5.1L70.2 178v-5.1l69.8-40.4z" fill="url(#support--gray--paint3_linear)"></path>
  <path opacity=".4" d="M70.3 172.9v5.1L0 137.6v-5.1l70.3 40.4z" fill="url(#support--gray--paint4_linear)"></path>
  <path d="M33.3 122.4l-1-.6v-25l1 .6v25z" fill="url(#support--gray--paint5_linear)"></path>
  <path d="M64.8 78.9l.1 25.1-31.6 18.5v-25l31.5-18.6z" fill="url(#support--gray--paint6_linear)"></path>
  <path opacity=".6" d="M33.2 97.4l-1-.6 31.5-18.5 1 .6-31.5 18.5z" fill="url(#support--gray--paint7_linear)"></path>
  <g filter="url(#support--gray--filter0_f)">
    <path d="M44.1 132l33.7-19.4 20.1 11.6-33.7 19.4L44.1 132z" fill="#555" fill-opacity="0.15"></path>
  </g>
  <path d="M49.7 109.4l-1-.6 31.5-18.5 1 .6-31.5 18.5z" fill="#F4F4F4"></path>
  <path d="M49.8 134.4l-1-.6-.1-25 1 .6.1 25z" fill="url(#support--gray--paint8_linear)"></path>
  <path d="M81.2 90.9l.1 25.1-31.5 18.5-.1-25 31.5-18.6z" fill="#fff"></path>
  <path d="M54.8 137.2l-1-.6-.1-25 1 .6.1 25z" fill="url(#support--gray--paint9_linear)"></path>
  <path d="M54.7 112.2l-1-.6 31.5-18.5 1.1.6-31.6 18.5z" fill="#F4F4F4"></path>
  <path opacity=".8" d="M86.3 93.6v25.1l-31.5 18.5-.1-25 31.6-18.6z" fill="#fff"></path>
  <path d="M59.9 140.1l-1-.6-.1-25 1 .6.1 25z" fill="url(#support--gray--paint10_linear)"></path>
  <path d="M59.8 115.1l-1-.6L90.3 96l1.1.6-31.6 18.5z" fill="#F4F4F4"></path>
  <path opacity=".8" d="M91.4 96.5v25.1l-31.5 18.5-.1-25 31.6-18.6z" fill="#fff"></path>
  <path d="M64.8 117.8l-1.1-.6 31.6-18.5 1 .6-31.5 18.5z" fill="#F4F4F4"></path>
  <path d="M64.9 142.8l-1-.6-.1-25 1.1.6v25z" fill="url(#support--gray--paint11_linear)"></path>
  <path opacity=".8" d="M96.4 99.3v25.1l-31.5 18.5v-25l31.5-18.6z" fill="#fff"></path>
  <defs>
    <linearGradient id="support--gray--paint0_linear" x1="69.9" y1="21.574" x2="69.9" y2="175.037" gradientUnits="userSpaceOnUse">
      <stop stop-color="#F5F5F5" stop-opacity="0"></stop>
      <stop offset=".996" stop-color="#A3A3A3" stop-opacity=".5"></stop>
    </linearGradient>
    <linearGradient id="support--gray--paint1_linear" x1="69.9" y1=".5" x2="69.9" y2="132.5" gradientUnits="userSpaceOnUse">
      <stop stop-color="#fff"></stop>
      <stop offset="1" stop-color="#fff" stop-opacity="0"></stop>
    </linearGradient>
    <linearGradient id="support--gray--paint2_linear" x1="119.663" y1="165.349" x2="18.273" y2="98.184" gradientUnits="userSpaceOnUse">
      <stop offset=".001" stop-color="#DADADA"></stop>
      <stop offset=".001" stop-color="#DBDBDB"></stop>
      <stop offset=".999" stop-color="#B6B6B6"></stop>
      <stop offset="1" stop-color="#B0B0B0"></stop>
    </linearGradient>
    <linearGradient id="support--gray--paint3_linear" x1="70.2" y1="155.25" x2="140" y2="155.25" gradientUnits="userSpaceOnUse">
      <stop stop-color="#BBB"></stop>
      <stop offset="1" stop-color="#DFDFDF"></stop>
    </linearGradient>
    <linearGradient id="support--gray--paint4_linear" x1="0" y1="155.25" x2="70.3" y2="155.25" gradientUnits="userSpaceOnUse">
      <stop stop-color="#959595"></stop>
      <stop offset="1" stop-color="#BBB"></stop>
    </linearGradient>
    <linearGradient id="support--gray--paint5_linear" x1="32.95" y1="67.743" x2="32.881" y2="87.027" gradientUnits="userSpaceOnUse">
      <stop stop-color="#888"></stop>
      <stop offset=".999" stop-color="#C3C3C3"></stop>
    </linearGradient>
    <linearGradient id="support--gray--paint6_linear" x1="38.354" y1="131.93" x2="57.642" y2="75.965" gradientUnits="userSpaceOnUse">
      <stop stop-color="#C1C1C1"></stop>
      <stop offset=".999" stop-color="#D8D8D8"></stop>
    </linearGradient>
    <linearGradient id="support--gray--paint7_linear" x1="22.241" y1="65.7" x2="51" y2="90.005" gradientUnits="userSpaceOnUse">
      <stop stop-color="#CACACA"></stop>
      <stop offset="1" stop-color="#9B9B9B" stop-opacity=".4"></stop>
    </linearGradient>
    <linearGradient id="support--gray--paint8_linear" x1="49.25" y1="134.4" x2="49.25" y2="108.757" gradientUnits="userSpaceOnUse">
      <stop stop-color="#E7E7E7"></stop>
      <stop offset="1" stop-color="#F4F4F4"></stop>
    </linearGradient>
    <linearGradient id="support--gray--paint9_linear" x1="54.25" y1="137.2" x2="54.25" y2="111.557" gradientUnits="userSpaceOnUse">
      <stop stop-color="#E7E7E7"></stop>
      <stop offset="1" stop-color="#F4F4F4"></stop>
    </linearGradient>
    <linearGradient id="support--gray--paint10_linear" x1="59.35" y1="140.06" x2="59.35" y2="114.417" gradientUnits="userSpaceOnUse">
      <stop stop-color="#E7E7E7"></stop>
      <stop offset="1" stop-color="#F4F4F4"></stop>
    </linearGradient>
    <linearGradient id="support--gray--paint11_linear" x1="64.35" y1="142.838" x2="64.35" y2="117.195" gradientUnits="userSpaceOnUse">
      <stop stop-color="#E7E7E7"></stop>
      <stop offset="1" stop-color="#F4F4F4"></stop>
    </linearGradient>
    <filter id="support--gray--filter0_f" x="40.1" y="108.6" width="61.8" height="39" filterUnits="userSpaceOnUse" color-interpolation-filters="sRGB">
      <feFlood flood-opacity="0" result="BackgroundImageFix"></feFlood>
      <feBlend in="SourceGraphic" in2="BackgroundImageFix" result="shape"></feBlend>
      <feGaussianBlur stdDeviation="2" result="effect1_foregroundBlur"></feGaussianBlur>
    </filter>
  </defs>
</svg>
