<svg width="140" height="200" fill="none" xmlns="http://www.w3.org/2000/svg">
  <g clip-path="url(#usage--blue--clip0)">
    <path fill="#fff" d="M0 0h140v200H0z"></path>
    <path opacity=".36" d="M66.322 193.854L.176 155.688 0 38.455 66.146.29l65.678 38.166.176 117.233-65.678 38.166z" fill="url(#usage--blue--paint0_linear)"></path>
    <path opacity=".13" d="M132 155.688l-65.678 38.166-66.03-38.166 65.62-38.107L132 155.688z" fill="url(#usage--blue--paint1_linear)"></path>
    <g filter="url(#usage--blue--filter0_f)">
      <path d="M77.975 141.4l10.295.749v5.124L77.976 141.4z" fill="url(#usage--blue--paint2_linear)" fill-opacity="0.06"></path>
    </g>
    <g filter="url(#usage--blue--filter1_f)">
      <path d="M63.208 148.55l10.295.749v5.124l-10.295-5.873z" fill="url(#usage--blue--paint3_linear)" fill-opacity="0.06"></path>
    </g>
    <g filter="url(#usage--blue--filter2_f)">
      <path d="M47.212 156.975l10.294.749v5.124l-10.294-5.873z" fill="url(#usage--blue--paint4_linear)" fill-opacity="0.06"></path>
    </g>
    <g filter="url(#usage--blue--filter3_f)">
      <path d="M32.2 164.886l10.295.75v5.124L32.2 164.886z" fill="url(#usage--blue--paint5_linear)" fill-opacity="0.06"></path>
    </g>
    <path opacity=".52" d="M132 155.688l-.059 6.205L66.322 200v-6.146L132 155.688z" fill="url(#usage--blue--paint6_linear)"></path>
    <path opacity=".42" d="M66.322 193.854V200L.234 161.893l.059-6.205 66.029 38.166z" fill="url(#usage--blue--paint7_linear)"></path>
    <path d="M69.332 92.224l4.195 2.422v59.906l-4.195-2.422V92.224z" fill="url(#usage--blue--paint8_linear)"></path>
    <path d="M73.53 94.646l4.2-2.425v59.91l-4.2 2.425v-59.91z" fill="url(#usage--blue--paint9_linear)"></path>
    <path fill="#F2F5FF" d="M69.332 92.22l4.198-2.423 4.198 2.424-4.198 2.423z"></path>
    <path d="M53.49 106.725l4.195 2.422v53.905l-4.195-2.421v-53.906z" fill="url(#usage--blue--paint10_linear)"></path>
    <path d="M57.688 109.147l4.2-2.425v53.91l-4.2 2.424v-53.909z" fill="url(#usage--blue--paint11_linear)"></path>
    <path fill="#F2F5FF" d="M53.49 106.725l4.198-2.424 4.197 2.424-4.197 2.424z"></path>
    <path d="M84.164 80.343l4.195 2.421v64.563l-4.195-2.422V80.343z" fill="url(#usage--blue--paint12_linear)"></path>
    <path d="M88.362 82.76l4.2-2.427v64.573l-4.2 2.425V82.76z" fill="url(#usage--blue--paint13_linear)"></path>
    <path fill="#F2F5FF" d="M84.162 80.343l4.197-2.424 4.198 2.424-4.198 2.423z"></path>
    <path d="M38.322 124.074l4.195 2.422v44.345l-4.195-2.422v-44.345z" fill="url(#usage--blue--paint14_linear)"></path>
    <path d="M42.52 126.5l4.2-2.425v44.345l-4.2 2.425V126.5z" fill="url(#usage--blue--paint15_linear)"></path>
    <path fill="#F2F5FF" d="M38.322 124.075l4.198-2.424 4.197 2.424-4.197 2.424z"></path>
  </g>
  <defs>
    <linearGradient id="usage--blue--paint0_linear" x1="65.989" y1="33.537" x2="65.989" y2="255.378" gradientUnits="userSpaceOnUse">
      <stop stop-color="#F6F2FF" stop-opacity="0"></stop>
      <stop offset=".466" stop-color="#BDCCFE" stop-opacity=".467"></stop>
      <stop offset=".814" stop-color="#99B4FE" stop-opacity=".815"></stop>
      <stop offset=".999" stop-color="#8BABFE"></stop>
      <stop offset="1" stop-color="#8CACFE"></stop>
    </linearGradient>
    <linearGradient id="usage--blue--paint1_linear" x1="122.119" y1="172.702" x2="26.622" y2="109.529" gradientUnits="userSpaceOnUse">
      <stop offset=".001" stop-color="#D5D5FF"></stop>
      <stop offset=".001" stop-color="#D6D7FF"></stop>
      <stop offset=".999" stop-color="#91BCFF"></stop>
      <stop offset="1" stop-color="#97AEFF"></stop>
    </linearGradient>
    <linearGradient id="usage--blue--paint2_linear" x1="92.016" y1="145.12" x2="19.807" y2="115.713" gradientUnits="userSpaceOnUse">
      <stop stop-color="#1B44D6"></stop>
      <stop offset="1" stop-color="#1B44D6" stop-opacity="0"></stop>
    </linearGradient>
    <linearGradient id="usage--blue--paint3_linear" x1="77.249" y1="152.27" x2="5.039" y2="122.863" gradientUnits="userSpaceOnUse">
      <stop stop-color="#1B44D6"></stop>
      <stop offset="1" stop-color="#1B44D6" stop-opacity="0"></stop>
    </linearGradient>
    <linearGradient id="usage--blue--paint4_linear" x1="61.252" y1="160.695" x2="-10.957" y2="131.288" gradientUnits="userSpaceOnUse">
      <stop stop-color="#1B44D6"></stop>
      <stop offset="1" stop-color="#1B44D6" stop-opacity="0"></stop>
    </linearGradient>
    <linearGradient id="usage--blue--paint5_linear" x1="46.241" y1="168.607" x2="-25.969" y2="139.199" gradientUnits="userSpaceOnUse">
      <stop stop-color="#1B44D6"></stop>
      <stop offset="1" stop-color="#1B44D6" stop-opacity="0"></stop>
    </linearGradient>
    <linearGradient id="usage--blue--paint6_linear" x1="66.302" y1="177.858" x2="132.007" y2="177.858" gradientUnits="userSpaceOnUse">
      <stop stop-color="#97C1FF"></stop>
      <stop offset="1" stop-color="#DDDAFF"></stop>
    </linearGradient>
    <linearGradient id="usage--blue--paint7_linear" x1=".234" y1="177.859" x2="66.304" y2="177.859" gradientUnits="userSpaceOnUse">
      <stop stop-color="#6D96FF"></stop>
      <stop offset="1" stop-color="#97C1FF"></stop>
    </linearGradient>
    <linearGradient id="usage--blue--paint8_linear" x1="71.43" y1="93.435" x2="45.49" y2="138.364" gradientUnits="userSpaceOnUse">
      <stop stop-color="#A4ADFF"></stop>
      <stop offset="0" stop-color="#C5D5FF"></stop>
      <stop offset="1" stop-color="#D2DFFF"></stop>
    </linearGradient>
    <linearGradient id="usage--blue--paint9_linear" x1="73.356" y1="88.128" x2="53.793" y2="152.119" gradientUnits="userSpaceOnUse">
      <stop stop-color="#E4EFFF"></stop>
      <stop offset="0" stop-color="#E4E9FF"></stop>
      <stop offset="1" stop-color="#fff"></stop>
    </linearGradient>
    <linearGradient id="usage--blue--paint10_linear" x1="55.588" y1="107.936" x2="32.246" y2="148.365" gradientUnits="userSpaceOnUse">
      <stop stop-color="#A4ADFF"></stop>
      <stop offset="0" stop-color="#C5D5FF"></stop>
      <stop offset="1" stop-color="#D2DFFF"></stop>
    </linearGradient>
    <linearGradient id="usage--blue--paint11_linear" x1="57.514" y1="102.875" x2="44.055" y2="163.279" gradientUnits="userSpaceOnUse">
      <stop stop-color="#E4EFFF"></stop>
      <stop offset="0" stop-color="#E4E9FF"></stop>
      <stop offset="1" stop-color="#fff"></stop>
    </linearGradient>
    <linearGradient id="usage--blue--paint12_linear" x1="86.262" y1="81.554" x2="58.305" y2="129.976" gradientUnits="userSpaceOnUse">
      <stop stop-color="#A4ADFF"></stop>
      <stop offset="0" stop-color="#C5D5FF"></stop>
      <stop offset="1" stop-color="#D2DFFF"></stop>
    </linearGradient>
    <linearGradient id="usage--blue--paint13_linear" x1="88.189" y1="60.435" x2="48.566" y2="129.057" gradientUnits="userSpaceOnUse">
      <stop stop-color="#E4EFFF"></stop>
      <stop offset="0" stop-color="#E4E9FF"></stop>
      <stop offset="1" stop-color="#fff"></stop>
    </linearGradient>
    <linearGradient id="usage--blue--paint14_linear" x1="40.419" y1="125.285" x2="21.217" y2="158.544" gradientUnits="userSpaceOnUse">
      <stop stop-color="#A4ADFF"></stop>
      <stop offset="0" stop-color="#C5D5FF"></stop>
      <stop offset="1" stop-color="#D2DFFF"></stop>
    </linearGradient>
    <linearGradient id="usage--blue--paint15_linear" x1="42.345" y1="124.783" x2="40.629" y2="173.274" gradientUnits="userSpaceOnUse">
      <stop stop-color="#E4EFFF"></stop>
      <stop offset="0" stop-color="#E4E9FF"></stop>
      <stop offset="1" stop-color="#fff"></stop>
    </linearGradient>
    <filter id="usage--blue--filter0_f" x="74.975" y="138.4" width="16.295" height="11.873" filterUnits="userSpaceOnUse" color-interpolation-filters="sRGB">
      <feFlood flood-opacity="0" result="BackgroundImageFix"></feFlood>
      <feBlend in="SourceGraphic" in2="BackgroundImageFix" result="shape"></feBlend>
      <feGaussianBlur stdDeviation="1.5" result="effect1_foregroundBlur"></feGaussianBlur>
    </filter>
    <filter id="usage--blue--filter1_f" x="60.208" y="145.55" width="16.295" height="11.873" filterUnits="userSpaceOnUse" color-interpolation-filters="sRGB">
      <feFlood flood-opacity="0" result="BackgroundImageFix"></feFlood>
      <feBlend in="SourceGraphic" in2="BackgroundImageFix" result="shape"></feBlend>
      <feGaussianBlur stdDeviation="1.5" result="effect1_foregroundBlur"></feGaussianBlur>
    </filter>
    <filter id="usage--blue--filter2_f" x="44.212" y="153.975" width="16.295" height="11.873" filterUnits="userSpaceOnUse" color-interpolation-filters="sRGB">
      <feFlood flood-opacity="0" result="BackgroundImageFix"></feFlood>
      <feBlend in="SourceGraphic" in2="BackgroundImageFix" result="shape"></feBlend>
      <feGaussianBlur stdDeviation="1.5" result="effect1_foregroundBlur"></feGaussianBlur>
    </filter>
    <filter id="usage--blue--filter3_f" x="29.2" y="161.886" width="16.295" height="11.873" filterUnits="userSpaceOnUse" color-interpolation-filters="sRGB">
      <feFlood flood-opacity="0" result="BackgroundImageFix"></feFlood>
      <feBlend in="SourceGraphic" in2="BackgroundImageFix" result="shape"></feBlend>
      <feGaussianBlur stdDeviation="1.5" result="effect1_foregroundBlur"></feGaussianBlur>
    </filter>
    <clipPath id="usage--blue--clip0">
      <path fill="#fff" d="M0 0h140v200H0z"></path>
    </clipPath>
  </defs>
</svg>
