<svg xmlns="http://www.w3.org/2000/svg" xmlns:xlink="http://www.w3.org/1999/xlink" viewBox="0 0 140 200">
  <defs>
    <linearGradient id="usage--dark-gray-4" x1="66.98" x2="66.98" y1="206.78" y2="29.82" gradientUnits="userSpaceOnUse">
      <stop offset="0" stop-color="#6f6f6f"/>
      <stop offset="1" stop-color="#161616" stop-opacity="0"/>
    </linearGradient>
    <linearGradient id="usage--dark-gray-5" x1="50.11" x2="83.93" y1="456.55" y2="397.97" gradientTransform="matrix(1 0 0 -1 0 568.33)" gradientUnits="userSpaceOnUse">
      <stop offset="0" stop-color="#525252"/>
      <stop offset="1" stop-color="#393939"/>
    </linearGradient>
    <linearGradient id="usage--dark-gray-6" x1="67.19" x2="134" y1="405.34" y2="405.34" gradientTransform="matrix(1 0 0 -1 0 568.33)" gradientUnits="userSpaceOnUse">
      <stop offset="0" stop-color="#161616"/>
      <stop offset="1" stop-color="#262626"/>
    </linearGradient>
    <linearGradient id="usage--dark-gray-2" x2="67.24" y1="405.34" y2="405.34" gradientTransform="matrix(1 0 0 -1 0 568.33)" gradientUnits="userSpaceOnUse">
      <stop offset="0" stop-color="#393939"/>
      <stop offset="1" stop-color="#262626"/>
    </linearGradient>
    <linearGradient id="usage--dark-gray-1" x1="50.95" x2="15.99" y1="157.15" y2="136.96" gradientUnits="userSpaceOnUse">
      <stop offset="0" stop-color="#d6d7ff"/>
      <stop offset="0" stop-color="#161616"/>
      <stop offset=".1" stop-color="#191919" stop-opacity=".84"/>
      <stop offset=".58" stop-color="#232323" stop-opacity=".22"/>
      <stop offset="1" stop-color="#262626" stop-opacity="0"/>
    </linearGradient>
    <linearGradient id="usage--dark-gray-7" x1="66.12" x2="31.15" y1="149.36" y2="129.17" xlink:href="#usage--dark-gray-1"/>
    <linearGradient id="usage--dark-gray-8" x1="81.96" x2="47" y1="140.86" y2="120.67" xlink:href="#usage--dark-gray-1"/>
    <linearGradient id="usage--dark-gray-9" x1="96.79" x2="61.83" y1="133.63" y2="113.45" xlink:href="#usage--dark-gray-1"/>
    <linearGradient id="usage--dark-gray-10" x1="76.37" x2="76.37" y1="141.26" y2="78.93" xlink:href="#usage--dark-gray-2"/>
    <linearGradient id="usage--dark-gray-3" x1="80.57" x2="80.57" y1="141.27" y2="78.93" gradientUnits="userSpaceOnUse">
      <stop offset="0" stop-color="#262626"/>
      <stop offset="1" stop-color="#393939"/>
    </linearGradient>
    <linearGradient id="usage--dark-gray-11" x1="60.52" x2="60.52" y1="149.76" y2="93.44" xlink:href="#usage--dark-gray-2"/>
    <linearGradient id="usage--dark-gray-12" x1="64.72" x2="64.72" y1="149.77" y2="93.43" xlink:href="#usage--dark-gray-3"/>
    <linearGradient id="usage--dark-gray-13" x1="91.2" x2="91.2" y1="134.04" y2="67.05" xlink:href="#usage--dark-gray-2"/>
    <linearGradient id="usage--dark-gray-14" x1="95.4" x2="95.4" y1="134.04" y2="67.04" xlink:href="#usage--dark-gray-3"/>
    <linearGradient id="usage--dark-gray-15" x1="45.36" x2="45.36" y1="157.55" y2="110.78" xlink:href="#usage--dark-gray-2"/>
    <linearGradient id="usage--dark-gray-16" x1="49.56" x2="49.56" y1="157.55" y2="110.79" xlink:href="#usage--dark-gray-3"/>
  </defs>
  <g data-name="Platforms and glow">
    <path fill="url(#usage--dark-gray-4)" d="M66.76 102.24L134 141.17V0H0v141.17z" opacity=".4" style="isolation:isolate"/>
    <path fill="url(#usage--dark-gray-5)" d="M0 141.07l66.77-38.93L134 141.07 67.24 180z"/>
    <path fill="url(#usage--dark-gray-6)" d="M134 141.07v4.9L67.19 184.9V180z"/>
    <path fill="url(#usage--dark-gray-2)" d="M67.24 180v4.9L0 146v-4.9z"/>
    <path fill="#161616" fill-opacity=".3" d="M67.19 184.9l-54.2-31.4L0 161.07 67.19 200l66.77-38.93-12.99-7.52-53.78 31.35z"/>
  </g>
  <path fill="url(#usage--dark-gray-1)" d="M16.01 139.4l4.21-2.42 31.44 18.15-4.21 2.42-31.44-18.15z" opacity=".5" style="isolation:isolate"/>
  <path fill="url(#usage--dark-gray-7)" d="M31.18 131.61l4.2-2.42 31.44 18.15-4.2 2.42-31.44-18.15z" opacity=".5" style="isolation:isolate"/>
  <path fill="url(#usage--dark-gray-8)" d="M47.02 123.11l4.21-2.42 31.44 18.15-4.21 2.42-31.44-18.15z" opacity=".5" style="isolation:isolate"/>
  <path fill="url(#usage--dark-gray-9)" d="M61.86 115.89l4.2-2.42 31.44 18.15-4.2 2.42-31.44-18.15z" opacity=".5" style="isolation:isolate"/>
  <path fill="url(#usage--dark-gray-10)" d="M74.27 78.93l4.19 2.43v59.9l-4.19-2.42z"/>
  <path fill="url(#usage--dark-gray-3)" d="M78.47 81.36l4.2-2.43v59.91l-4.2 2.43z"/>
  <path fill="#6f6f6f" d="M74.27 78.93l4.2-2.42 4.19 2.42-4.19 2.43-4.2-2.43z" opacity=".3" style="isolation:isolate"/>
  <path fill="url(#usage--dark-gray-11)" d="M58.43 93.44l4.19 2.42v53.9l-4.19-2.42z"/>
  <path fill="url(#usage--dark-gray-12)" d="M62.62 95.86l4.2-2.43v53.91l-4.2 2.43z"/>
  <path fill="#6f6f6f" d="M58.43 93.44l4.2-2.43 4.19 2.43-4.19 2.42-4.2-2.42z" opacity=".3" style="isolation:isolate"/>
  <path fill="url(#usage--dark-gray-13)" d="M89.1 67.05l4.2 2.43V134l-4.2-2.42z"/>
  <path fill="url(#usage--dark-gray-14)" d="M93.3 69.47L97.5 67v64.58L93.3 134z"/>
  <path fill="#6f6f6f" d="M89.1 67.05l4.2-2.42 4.19 2.42-4.19 2.43-4.2-2.43z" opacity=".3" style="isolation:isolate"/>
  <path fill="url(#usage--dark-gray-15)" d="M43.26 110.78l4.19 2.43v44.34l-4.19-2.42z"/>
  <path fill="url(#usage--dark-gray-16)" d="M47.46 113.21l4.2-2.42v44.34l-4.2 2.42z"/>
  <path fill="#6f6f6f" d="M43.26 110.78l4.2-2.42 4.19 2.42-4.19 2.43-4.2-2.43z" opacity=".3" style="isolation:isolate"/>
</svg>